<svg width="545" height="379" viewBox="0 0 545 379" fill="none" xmlns="http://www.w3.org/2000/svg">
<rect width="545" height="379" fill="#010000"/>
<path d="M107.5 79L177 69L180.5 19L270.5 3L361.5 20.5L364.5 57.5L445.5 80.5L451 123.5L473 129L481 167.5L501.5 174.5L509 206.5L526.5 211L542 266.5L267.5 376.5L3 265L20 211L39 205L43.5 172.5L69.5 167.5L78 128.5L101.5 123L107.5 79Z" stroke="white" stroke-width="4"/>
<path d="M267.5 376.5L271.5 132" stroke="white" stroke-width="4"/>
<path d="M366 78.5L364.5 57" stroke="white" stroke-width="4"/>
<path d="M176.536 74.9784L177.085 68" stroke="white" stroke-width="4"/>
<path d="M271.5 37.7952L271.5 104.5" stroke="white" stroke-width="4"/>
<path d="M175 73L271.503 103L367.5 76.5593" stroke="white" stroke-width="4"/>
<path d="M181 19L271.5 37.5L361 21" stroke="white" stroke-width="4"/>
<path d="M108 79L271.5 132.5L445.5 80.5" stroke="white" stroke-width="4"/>
<path d="M378.483 116.627L320 135.395L324.014 143.402L382.497 124.635L378.483 116.627Z" fill="#FF007E"/>
<path d="M402.253 164.673L344 185.638L348.301 193.496L406.554 172.532L402.253 164.673Z" fill="#FF007E"/>
<path d="M409.017 178.675L350.437 199.759L354.745 207.615L413.325 186.532L409.017 178.675Z" fill="#FF007E"/>
<path d="M371.058 170.374C367.986 171.615 364.489 170.131 363.247 167.058C362.006 163.986 363.49 160.489 366.563 159.248C369.635 158.006 373.132 159.491 374.374 162.563C375.615 165.636 374.131 169.133 371.058 170.374Z" fill="#FF007E"/>
<path d="M420.058 224.374C416.986 225.615 413.489 224.131 412.247 221.058C411.006 217.986 412.49 214.489 415.563 213.248C418.635 212.006 422.132 213.491 423.374 216.563C424.615 219.636 423.131 223.133 420.058 224.374Z" fill="#FF007E"/>
<path d="M402.058 231.374C398.986 232.615 395.489 231.131 394.247 228.058C393.006 224.986 394.49 221.489 397.563 220.248C400.635 219.006 404.132 220.491 405.374 223.563C406.615 226.636 405.131 230.133 402.058 231.374Z" fill="#FF007E"/>
<path d="M384.058 238.374C380.986 239.615 377.489 238.131 376.247 235.058C375.006 231.986 376.49 228.489 379.563 227.248C382.635 226.006 386.132 227.491 387.374 230.563C388.615 233.636 387.131 237.133 384.058 238.374Z" fill="#FF007E"/>
<path d="M311 120L408.5 319" stroke="white" stroke-width="4"/>
<path d="M370.5 103L472 295" stroke="white" stroke-width="4"/>
<path d="M156.132 112.641L213.3 132.089L209.168 140.033L152 120.584L156.132 112.641Z" fill="#DBFF00"/>
<path d="M131.27 161.661L188.09 182.105L183.82 189.975L127 169.532L131.27 161.661Z" fill="#DBFF00"/>
<path d="M124.27 175.661L181.09 196.105L176.82 203.975L120 183.532L124.27 175.661Z" fill="#DBFF00"/>
<path d="M221 116L122.5 315.5" stroke="white" stroke-width="4"/>
<path d="M162.5 97L66 291.5" stroke="white" stroke-width="4"/>
<path d="M102 123L142.5 137" stroke="white" stroke-width="4"/>
<path d="M200.5 156.5L270.5 180.5" stroke="white" stroke-width="4"/>
<path d="M271 180.5L331 161.5" stroke="white" stroke-width="4"/>
<path d="M391.5 142.5L451 123.5" stroke="white" stroke-width="4"/>
<path d="M20.5 211L92 239" stroke="white" stroke-width="4"/>
<path d="M149 261.5L268.5 308.5" stroke="white" stroke-width="4"/>
<path d="M73.3792 237.944L55.2887 281.619L47.313 278.315L39.6982 242.956L39.3783 242.824L27.9922 270.312L18.7583 266.487L36.8488 222.813L44.9525 226.17L52.4269 261.445L52.8107 261.604L64.1879 234.137L73.3792 237.944ZM117.266 256.123L99.1752 299.797L89.9413 295.972L108.032 252.298L117.266 256.123Z" fill="#DBFF00"/>
<path d="M151.886 270.463L163.274 275.18L163.147 309.506L163.659 309.718L187.841 285.356L199.229 290.073L181.138 333.747L172.181 330.037L183.956 301.611L183.594 301.46L160.605 324.992L154.506 322.466L154.934 289.464L154.571 289.314L142.752 317.847L133.796 314.137L151.886 270.463ZM215.769 348.092L233.86 304.418L263.289 316.608L260.135 324.221L239.94 315.856L235.63 326.262L254.311 334L251.157 341.613L232.476 333.876L228.157 344.304L248.437 352.704L245.284 360.317L215.769 348.092Z" fill="#FF007E"/>
<path d="M73.3792 237.944L74.303 238.327L74.6857 237.403L73.7618 237.02L73.3792 237.944ZM55.2887 281.619L54.906 282.543L55.8299 282.925L56.2125 282.001L55.2887 281.619ZM47.313 278.315L46.3354 278.526L46.4458 279.038L46.9303 279.239L47.313 278.315ZM39.6982 242.956L40.6757 242.746L40.5653 242.233L40.0808 242.032L39.6982 242.956ZM39.3783 242.824L39.761 241.9L38.8371 241.517L38.4544 242.441L39.3783 242.824ZM27.9922 270.312L27.6095 271.236L28.5334 271.619L28.9161 270.695L27.9922 270.312ZM18.7583 266.487L17.8345 266.105L17.4518 267.029L18.3757 267.411L18.7583 266.487ZM36.8488 222.813L37.2315 221.889L36.3076 221.506L35.925 222.43L36.8488 222.813ZM44.9525 226.17L45.9308 225.962L45.8216 225.447L45.3352 225.246L44.9525 226.17ZM52.4269 261.445L51.4486 261.653L51.5577 262.168L52.0442 262.369L52.4269 261.445ZM52.8107 261.604L52.428 262.528L53.3519 262.911L53.7346 261.987L52.8107 261.604ZM64.1879 234.137L64.5706 233.213L63.6467 232.831L63.2641 233.755L64.1879 234.137ZM72.4553 237.562L54.3648 281.236L56.2125 282.001L74.303 238.327L72.4553 237.562ZM55.6714 280.695L47.6957 277.391L46.9303 279.239L54.906 282.543L55.6714 280.695ZM48.2906 278.105L40.6757 242.746L38.7206 243.167L46.3354 278.526L48.2906 278.105ZM40.0808 242.032L39.761 241.9L38.9956 243.748L39.3155 243.88L40.0808 242.032ZM38.4544 242.441L27.0683 269.929L28.9161 270.695L40.3022 243.206L38.4544 242.441ZM28.3749 269.388L19.141 265.563L18.3757 267.411L27.6095 271.236L28.3749 269.388ZM19.6822 266.87L37.7727 223.196L35.925 222.43L17.8345 266.105L19.6822 266.87ZM36.4662 223.737L44.5698 227.094L45.3352 225.246L37.2315 221.889L36.4662 223.737ZM43.9742 226.377L51.4486 261.653L53.4051 261.238L45.9308 225.962L43.9742 226.377ZM52.0442 262.369L52.428 262.528L53.1934 260.68L52.8095 260.521L52.0442 262.369ZM53.7346 261.987L65.1118 234.52L63.2641 233.755L51.8868 261.222L53.7346 261.987ZM63.8053 235.061L72.9965 238.868L73.7618 237.02L64.5706 233.213L63.8053 235.061ZM117.266 256.123L118.19 256.505L118.572 255.582L117.648 255.199L117.266 256.123ZM99.1752 299.797L98.7925 300.721L99.7164 301.104L100.099 300.18L99.1752 299.797ZM89.9413 295.972L89.0174 295.59L88.6347 296.513L89.5586 296.896L89.9413 295.972ZM108.032 252.298L108.414 251.374L107.491 250.991L107.108 251.915L108.032 252.298ZM116.342 255.74L98.2513 299.414L100.099 300.18L118.19 256.505L116.342 255.74ZM99.5579 298.873L90.324 295.048L89.5586 296.896L98.7925 300.721L99.5579 298.873ZM90.8652 296.355L108.956 252.681L107.108 251.915L89.0174 295.59L90.8652 296.355ZM107.649 253.222L116.883 257.047L117.648 255.199L108.414 251.374L107.649 253.222ZM151.886 270.463L152.269 269.539L151.345 269.157L150.962 270.08L151.886 270.463ZM163.274 275.18L164.274 275.184L164.277 274.513L163.657 274.256L163.274 275.18ZM163.147 309.506L162.147 309.502L162.145 310.173L162.764 310.43L163.147 309.506ZM163.659 309.718L163.276 310.642L163.896 310.898L164.368 310.422L163.659 309.718ZM187.841 285.356L188.224 284.432L187.604 284.175L187.131 284.651L187.841 285.356ZM199.229 290.073L200.152 290.456L200.535 289.532L199.611 289.149L199.229 290.073ZM181.138 333.747L180.755 334.671L181.679 335.054L182.062 334.13L181.138 333.747ZM172.181 330.037L171.258 329.655L170.875 330.578L171.799 330.961L172.181 330.037ZM183.956 301.611L184.88 301.993L185.263 301.069L184.339 300.687L183.956 301.611ZM183.594 301.46L183.976 300.537L183.351 300.278L182.878 300.762L183.594 301.46ZM160.605 324.992L160.222 325.916L160.847 326.175L161.32 325.691L160.605 324.992ZM154.506 322.466L153.506 322.453L153.497 323.13L154.123 323.39L154.506 322.466ZM154.934 289.464L155.934 289.477L155.943 288.8L155.317 288.54L154.934 289.464ZM154.571 289.314L154.954 288.39L154.03 288.007L153.647 288.931L154.571 289.314ZM142.752 317.847L142.37 318.771L143.294 319.154L143.676 318.23L142.752 317.847ZM133.796 314.137L132.872 313.755L132.489 314.679L133.413 315.061L133.796 314.137ZM151.504 271.387L162.891 276.104L163.657 274.256L152.269 269.539L151.504 271.387ZM162.274 275.176L162.147 309.502L164.147 309.509L164.274 275.184L162.274 275.176ZM162.764 310.43L163.276 310.642L164.041 308.794L163.53 308.582L162.764 310.43ZM164.368 310.422L188.551 286.06L187.131 284.651L162.949 309.013L164.368 310.422ZM187.458 286.28L198.846 290.997L199.611 289.149L188.224 284.432L187.458 286.28ZM198.305 289.69L180.214 333.365L182.062 334.13L200.152 290.456L198.305 289.69ZM181.521 332.823L172.564 329.113L171.799 330.961L180.755 334.671L181.521 332.823ZM173.105 330.42L184.88 301.993L183.032 301.228L171.258 329.655L173.105 330.42ZM184.339 300.687L183.976 300.537L183.211 302.384L183.573 302.534L184.339 300.687ZM182.878 300.762L159.889 324.293L161.32 325.691L184.309 302.159L182.878 300.762ZM160.987 324.068L154.888 321.542L154.123 323.39L160.222 325.916L160.987 324.068ZM155.506 322.479L155.934 289.477L153.934 289.451L153.506 322.453L155.506 322.479ZM155.317 288.54L154.954 288.39L154.189 290.238L154.551 290.388L155.317 288.54ZM153.647 288.931L141.829 317.465L143.676 318.23L155.495 289.697L153.647 288.931ZM143.135 316.923L134.178 313.214L133.413 315.061L142.37 318.771L143.135 316.923ZM134.72 314.52L152.81 270.846L150.962 270.08L132.872 313.755L134.72 314.52ZM215.769 348.092L214.845 347.709L214.463 348.633L215.387 349.016L215.769 348.092ZM233.86 304.418L234.243 303.494L233.319 303.111L232.936 304.035L233.86 304.418ZM263.289 316.608L264.213 316.99L264.595 316.066L263.672 315.684L263.289 316.608ZM260.135 324.221L259.753 325.145L260.677 325.527L261.059 324.603L260.135 324.221ZM239.94 315.856L240.323 314.932L239.399 314.549L239.016 315.473L239.94 315.856ZM235.63 326.262L234.706 325.88L234.323 326.804L235.247 327.186L235.63 326.262ZM254.311 334L255.235 334.383L255.617 333.459L254.693 333.076L254.311 334ZM251.157 341.613L250.775 342.537L251.698 342.92L252.081 341.996L251.157 341.613ZM232.476 333.876L232.859 332.952L231.935 332.569L231.552 333.493L232.476 333.876ZM228.157 344.304L227.233 343.921L226.85 344.845L227.774 345.227L228.157 344.304ZM248.437 352.704L249.361 353.087L249.744 352.163L248.82 351.78L248.437 352.704ZM245.284 360.317L244.901 361.241L245.825 361.624L246.208 360.7L245.284 360.317ZM216.693 348.475L234.784 304.8L232.936 304.035L214.845 347.709L216.693 348.475ZM233.477 305.342L262.906 317.531L263.672 315.684L234.243 303.494L233.477 305.342ZM262.365 316.225L259.212 323.838L261.059 324.603L264.213 316.99L262.365 316.225ZM260.518 323.297L240.323 314.932L239.558 316.779L259.753 325.145L260.518 323.297ZM239.016 315.473L234.706 325.88L236.554 326.645L240.864 316.238L239.016 315.473ZM235.247 327.186L253.928 334.924L254.693 333.076L236.012 325.338L235.247 327.186ZM253.387 333.618L250.233 341.231L252.081 341.996L255.235 334.383L253.387 333.618ZM251.54 340.69L232.859 332.952L232.093 334.799L250.775 342.537L251.54 340.69ZM231.552 333.493L227.233 343.921L229.081 344.686L233.4 334.258L231.552 333.493ZM227.774 345.227L248.054 353.628L248.82 351.78L228.539 343.38L227.774 345.227ZM247.513 352.321L244.36 359.934L246.208 360.7L249.361 353.087L247.513 352.321ZM245.666 359.393L216.152 347.168L215.387 349.016L244.901 361.241L245.666 359.393Z" fill="#010000"/>
<path d="M290.269 308.878L305.044 320.374L305.387 320.239L308.395 301.738L318.897 297.601L314.137 324.88L336.523 341.466L325.828 345.679L310.894 334.22L310.551 334.355L307.444 352.92L296.792 357.116L301.895 329.702L279.724 313.031L290.269 308.878ZM361.295 280.9L378.621 324.883L369.322 328.546L351.996 284.563L361.295 280.9ZM441.034 267.277L431.628 270.983C430.976 269.833 430.2 268.891 429.298 268.154C428.39 267.404 427.389 266.856 426.293 266.51C425.198 266.164 424.035 266.026 422.806 266.097C421.591 266.162 420.354 266.443 419.094 266.939C416.818 267.836 415.057 269.182 413.814 270.979C412.564 272.761 411.897 274.91 411.812 277.424C411.722 279.924 412.277 282.698 413.479 285.748C414.714 288.884 416.217 291.335 417.988 293.101C419.773 294.863 421.725 295.954 423.843 296.377C425.961 296.8 428.13 296.574 430.349 295.7C431.594 295.209 432.682 294.59 433.612 293.844C434.556 293.091 435.319 292.237 435.901 291.28C436.478 290.308 436.858 289.257 437.041 288.127C437.238 286.99 437.213 285.793 436.966 284.534L446.389 280.872C446.941 282.987 447.1 285.173 446.865 287.433C446.639 289.672 446 291.85 444.949 293.968C443.906 296.065 442.43 297.986 440.521 299.731C438.62 301.456 436.259 302.873 433.439 303.984C429.516 305.53 425.658 306.024 421.866 305.467C418.089 304.904 414.642 303.293 411.527 300.633C408.426 297.968 405.934 294.244 404.051 289.462C402.161 284.666 401.456 280.23 401.935 276.154C402.413 272.079 403.852 268.552 406.251 265.573C408.644 262.579 411.774 260.321 415.639 258.798C418.188 257.794 420.691 257.222 423.149 257.08C425.622 256.933 427.974 257.214 430.205 257.923C432.43 258.618 434.461 259.745 436.299 261.303C438.151 262.856 439.73 264.847 441.034 267.277ZM517.933 244.603C519.822 249.399 520.52 253.837 520.027 257.918C519.549 261.994 518.098 265.534 515.676 268.538C513.263 271.523 510.117 273.78 506.237 275.308C502.328 276.848 498.47 277.342 494.664 276.791C490.858 276.239 487.39 274.636 484.261 271.982C481.131 269.328 478.625 265.61 476.741 260.828C474.852 256.032 474.147 251.596 474.625 247.521C475.104 243.446 476.55 239.916 478.963 236.931C481.371 233.931 484.529 231.662 488.437 230.122C492.317 228.594 496.161 228.106 499.967 228.657C503.782 229.189 507.254 230.781 510.383 233.435C513.527 236.084 516.043 239.806 517.933 244.603ZM508.505 248.316C507.281 245.209 505.783 242.773 504.012 241.006C502.256 239.234 500.323 238.126 498.213 237.683C496.104 237.241 493.925 237.462 491.677 238.348C489.43 239.233 487.685 240.557 486.444 242.319C485.203 244.082 484.538 246.213 484.448 248.713C484.372 251.207 484.945 254.008 486.169 257.114C487.393 260.221 488.883 262.661 490.64 264.433C492.411 266.2 494.351 267.305 496.461 267.747C498.57 268.19 500.749 267.968 502.997 267.083C505.244 266.198 506.989 264.874 508.23 263.111C509.471 261.349 510.129 259.221 510.205 256.727C510.295 254.227 509.728 251.423 508.505 248.316Z" fill="#FF007E"/>
<path d="M290.269 308.878L290.883 308.088L290.433 307.738L289.902 307.947L290.269 308.878ZM305.044 320.374L304.429 321.163L304.88 321.514L305.41 321.305L305.044 320.374ZM305.387 320.239L305.754 321.169L306.283 320.961L306.374 320.399L305.387 320.239ZM308.395 301.738L308.028 300.807L307.499 301.016L307.408 301.577L308.395 301.738ZM318.897 297.601L319.882 297.773L320.188 296.017L318.53 296.67L318.897 297.601ZM314.137 324.88L313.152 324.708L313.046 325.316L313.542 325.683L314.137 324.88ZM336.523 341.466L336.89 342.396L338.567 341.735L337.118 340.662L336.523 341.466ZM325.828 345.679L325.219 346.472L325.668 346.816L326.194 346.609L325.828 345.679ZM310.894 334.22L311.503 333.426L311.054 333.082L310.528 333.289L310.894 334.22ZM310.551 334.355L310.184 333.425L309.658 333.632L309.565 334.19L310.551 334.355ZM307.444 352.92L307.811 353.851L308.337 353.643L308.43 353.085L307.444 352.92ZM296.792 357.116L295.809 356.933L295.478 358.708L297.158 358.047L296.792 357.116ZM301.895 329.702L302.879 329.885L302.992 329.275L302.496 328.903L301.895 329.702ZM279.724 313.031L279.358 312.101L277.694 312.756L279.123 313.831L279.724 313.031ZM289.655 309.667L304.429 321.163L305.658 319.585L290.883 308.088L289.655 309.667ZM305.41 321.305L305.754 321.169L305.021 319.308L304.677 319.444L305.41 321.305ZM306.374 320.399L309.382 301.898L307.408 301.577L304.4 320.078L306.374 320.399ZM308.761 302.668L319.263 298.531L318.53 296.67L308.028 300.807L308.761 302.668ZM317.912 297.429L313.152 324.708L315.122 325.052L319.882 297.773L317.912 297.429ZM313.542 325.683L335.928 342.269L337.118 340.662L314.732 324.076L313.542 325.683ZM336.157 340.535L325.461 344.748L326.194 346.609L336.89 342.396L336.157 340.535ZM326.437 344.885L311.503 333.426L310.286 335.013L325.219 346.472L326.437 344.885ZM310.528 333.289L310.184 333.425L310.917 335.286L311.261 335.15L310.528 333.289ZM309.565 334.19L306.458 352.755L308.43 353.085L311.537 334.52L309.565 334.19ZM307.078 351.99L296.425 356.186L297.158 358.047L307.811 353.851L307.078 351.99ZM297.775 357.299L302.879 329.885L300.912 329.519L295.809 356.933L297.775 357.299ZM302.496 328.903L280.325 312.232L279.123 313.831L301.295 330.501L302.496 328.903ZM280.091 313.962L290.636 309.808L289.902 307.947L279.358 312.101L280.091 313.962ZM361.295 280.9L362.226 280.533L361.859 279.603L360.929 279.969L361.295 280.9ZM378.621 324.883L378.987 325.813L379.918 325.447L379.551 324.516L378.621 324.883ZM369.322 328.546L368.391 328.913L368.758 329.843L369.688 329.476L369.322 328.546ZM351.996 284.563L351.63 283.632L350.699 283.999L351.066 284.929L351.996 284.563ZM360.365 281.266L377.69 325.249L379.551 324.516L362.226 280.533L360.365 281.266ZM378.254 323.953L368.955 327.616L369.688 329.476L378.987 325.813L378.254 323.953ZM370.252 328.18L352.926 284.196L351.066 284.929L368.391 328.913L370.252 328.18ZM352.363 285.493L361.662 281.83L360.929 279.969L351.63 283.632L352.363 285.493ZM441.034 267.277L441.401 268.208L442.447 267.796L441.915 266.804L441.034 267.277ZM431.628 270.983L430.758 271.476L431.186 272.232L431.994 271.913L431.628 270.983ZM429.298 268.154L428.66 268.925L428.665 268.929L429.298 268.154ZM426.293 266.51L425.992 267.463L425.992 267.463L426.293 266.51ZM422.806 266.097L422.86 267.096L422.864 267.095L422.806 266.097ZM413.814 270.979L414.632 271.553L414.636 271.548L413.814 270.979ZM411.812 277.424L412.812 277.46L412.812 277.457L411.812 277.424ZM417.988 293.101L417.281 293.809L417.285 293.813L417.988 293.101ZM423.843 296.377L423.647 297.358L423.647 297.358L423.843 296.377ZM433.612 293.844L432.989 293.062L432.986 293.064L433.612 293.844ZM435.901 291.28L436.756 291.799L436.761 291.79L435.901 291.28ZM437.041 288.127L436.056 287.955L436.054 287.967L437.041 288.127ZM436.966 284.534L436.603 283.602L435.823 283.906L435.984 284.727L436.966 284.534ZM446.389 280.872L447.357 280.619L447.073 279.533L446.027 279.94L446.389 280.872ZM446.865 287.433L445.87 287.329L445.87 287.332L446.865 287.433ZM444.949 293.968L445.844 294.413L445.844 294.412L444.949 293.968ZM440.521 299.731L441.192 300.472L441.195 300.469L440.521 299.731ZM421.866 305.467L421.719 306.456L421.721 306.456L421.866 305.467ZM411.527 300.633L410.875 301.391L410.878 301.393L411.527 300.633ZM401.935 276.154L402.928 276.271L401.935 276.154ZM406.251 265.573L407.03 266.2L407.032 266.197L406.251 265.573ZM423.149 257.08L423.207 258.079L423.209 258.079L423.149 257.08ZM430.205 257.923L429.902 258.876L429.907 258.878L430.205 257.923ZM436.299 261.303L435.652 262.066L435.657 262.069L436.299 261.303ZM440.668 266.347L431.261 270.052L431.994 271.913L441.401 268.208L440.668 266.347ZM432.498 270.49C431.793 269.247 430.94 268.204 429.93 267.38L428.665 268.929C429.459 269.577 430.159 270.42 430.758 271.476L432.498 270.49ZM429.935 267.384C428.931 266.553 427.816 265.942 426.594 265.556L425.992 267.463C426.962 267.769 427.85 268.254 428.661 268.925L429.935 267.384ZM426.594 265.556C425.375 265.171 424.09 265.022 422.749 265.099L422.864 267.095C423.98 267.031 425.02 267.157 425.992 267.463L426.594 265.556ZM422.753 265.098C421.419 265.17 420.076 265.477 418.728 266.009L419.461 267.87C420.632 267.408 421.764 267.154 422.86 267.096L422.753 265.098ZM418.728 266.009C416.29 266.969 414.361 268.431 412.991 270.41L414.636 271.548C415.754 269.934 417.346 268.703 419.461 267.87L418.728 266.009ZM412.995 270.405C411.617 272.37 410.903 274.713 410.813 277.39L412.812 277.457C412.891 275.106 413.511 273.153 414.632 271.553L412.995 270.405ZM410.813 277.388C410.716 280.061 411.311 282.975 412.548 286.115L414.409 285.382C413.243 282.422 412.727 279.787 412.812 277.46L410.813 277.388ZM412.548 286.115C413.817 289.336 415.386 291.918 417.282 293.809L418.694 292.393C417.048 290.751 415.61 288.431 414.409 285.382L412.548 286.115ZM417.285 293.813C419.187 295.689 421.308 296.891 423.647 297.358L424.039 295.396C422.141 295.018 420.359 294.036 418.69 292.39L417.285 293.813ZM423.647 297.358C425.973 297.822 428.337 297.567 430.715 296.63L429.982 294.769C427.922 295.581 425.949 295.778 424.039 295.396L423.647 297.358ZM430.715 296.63C432.043 296.107 433.221 295.44 434.238 294.623L432.986 293.064C432.143 293.74 431.146 294.311 429.982 294.769L430.715 296.63ZM434.235 294.626C435.264 293.806 436.108 292.864 436.756 291.799L435.047 290.76C434.53 291.609 433.848 292.377 432.989 293.062L434.235 294.626ZM436.761 291.79C437.403 290.709 437.825 289.539 438.028 288.287L436.054 287.967C435.891 288.975 435.553 289.907 435.042 290.769L436.761 291.79ZM438.026 288.298C438.247 287.028 438.216 285.707 437.947 284.341L435.984 284.727C436.211 285.879 436.23 286.953 436.056 287.955L438.026 288.298ZM437.328 285.466L446.751 281.804L446.027 279.94L436.603 283.602L437.328 285.466ZM445.422 281.124C445.942 283.118 446.093 285.185 445.87 287.329L447.859 287.536C448.106 285.162 447.94 282.855 447.357 280.619L445.422 281.124ZM445.87 287.332C445.656 289.445 445.053 291.508 444.053 293.523L445.844 294.412C446.946 292.192 447.621 289.898 447.86 287.533L445.87 287.332ZM444.053 293.523C443.071 295.499 441.674 297.323 439.846 298.993L441.195 300.469C443.186 298.65 444.741 296.632 445.844 294.413L444.053 293.523ZM439.849 298.99C438.052 300.62 435.8 301.979 433.072 303.054L433.805 304.915C436.718 303.767 439.188 302.291 441.192 300.472L439.849 298.99ZM433.072 303.054C429.295 304.542 425.614 305.006 422.012 304.477L421.721 306.456C425.702 307.041 429.736 306.518 433.805 304.915L433.072 303.054ZM422.014 304.477C418.435 303.944 415.16 302.419 412.177 299.872L410.878 301.393C414.125 304.166 417.742 305.863 421.719 306.456L422.014 304.477ZM412.179 299.875C409.229 297.339 406.82 293.764 404.981 289.095L403.12 289.828C405.048 294.724 407.624 298.596 410.875 301.391L412.179 299.875ZM404.981 289.095C403.137 284.414 402.473 280.146 402.928 276.271L400.941 276.038C400.439 280.314 401.186 284.917 403.12 289.828L404.981 289.095ZM402.928 276.271C403.386 272.369 404.758 269.022 407.03 266.2L405.472 264.946C402.946 268.082 401.44 271.79 400.941 276.038L402.928 276.271ZM407.032 266.197C409.307 263.351 412.289 261.193 416.006 259.729L415.273 257.868C411.259 259.449 407.981 261.807 405.47 264.948L407.032 266.197ZM416.006 259.729C418.467 258.759 420.866 258.213 423.207 258.079L423.092 256.082C420.517 256.23 417.909 256.829 415.273 257.868L416.006 259.729ZM423.209 258.079C425.566 257.938 427.794 258.207 429.902 258.876L430.507 256.97C428.153 256.222 425.678 255.928 423.09 256.082L423.209 258.079ZM429.907 258.878C432 259.531 433.913 260.591 435.652 262.066L436.946 260.54C435.009 258.898 432.86 257.705 430.503 256.969L429.907 258.878ZM435.657 262.069C437.399 263.53 438.9 265.417 440.153 267.75L441.915 266.804C440.559 264.278 438.904 262.182 436.942 260.537L435.657 262.069ZM520.027 257.918L519.034 257.798L519.034 257.802L520.027 257.918ZM515.676 268.538L516.454 269.167L516.455 269.166L515.676 268.538ZM494.664 276.791L494.808 275.801L494.664 276.791ZM484.261 271.982L483.614 272.745L484.261 271.982ZM474.625 247.521L475.618 247.638L474.625 247.521ZM478.963 236.931L479.741 237.559L479.743 237.557L478.963 236.931ZM499.967 228.657L499.823 229.647L499.829 229.648L499.967 228.657ZM510.383 233.435L509.736 234.198L509.739 234.2L510.383 233.435ZM504.012 241.006L503.302 241.71L503.306 241.714L504.012 241.006ZM498.213 237.683L498.008 238.662L498.213 237.683ZM486.444 242.319L487.262 242.895L486.444 242.319ZM484.448 248.713L483.448 248.677L483.448 248.682L484.448 248.713ZM490.64 264.433L489.93 265.137L489.934 265.141L490.64 264.433ZM496.461 267.747L496.666 266.769L496.461 267.747ZM508.23 263.111L507.412 262.536L508.23 263.111ZM510.205 256.727L509.206 256.69L509.205 256.696L510.205 256.727ZM517.002 244.969C518.846 249.649 519.503 253.919 519.035 257.798L521.02 258.038C521.537 253.756 520.798 249.148 518.863 244.236L517.002 244.969ZM519.034 257.802C518.576 261.702 517.194 265.062 514.898 267.911L516.455 269.166C519.003 266.005 520.521 262.285 521.02 258.035L519.034 257.802ZM514.899 267.91C512.604 270.749 509.604 272.907 505.87 274.378L506.603 276.239C510.63 274.653 513.923 272.298 516.454 269.167L514.899 267.91ZM505.87 274.378C502.108 275.86 498.426 276.325 494.808 275.801L494.521 277.78C498.515 278.359 502.548 277.836 506.603 276.239L505.87 274.378ZM494.808 275.801C491.2 275.278 487.904 273.761 484.908 271.22L483.614 272.745C486.877 275.512 490.516 277.2 494.521 277.78L494.808 275.801ZM484.908 271.22C481.932 268.696 479.51 265.128 477.672 260.462L475.811 261.195C477.74 266.092 480.331 269.961 483.614 272.745L484.908 271.22ZM477.672 260.462C475.828 255.78 475.163 251.512 475.618 247.638L473.632 247.404C473.13 251.68 473.876 256.284 475.811 261.195L477.672 260.462ZM475.618 247.638C476.077 243.736 477.454 240.387 479.741 237.559L478.185 236.302C475.645 239.444 474.131 243.155 473.632 247.404L475.618 247.638ZM479.743 237.557C482.032 234.705 485.042 232.535 488.804 231.053L488.071 229.192C484.016 230.789 480.71 233.157 478.183 236.305L479.743 237.557ZM488.804 231.053C492.536 229.583 496.204 229.122 499.823 229.647L500.11 227.667C496.117 227.089 492.099 227.605 488.071 229.192L488.804 231.053ZM499.829 229.648C503.444 230.151 506.742 231.658 509.736 234.198L511.03 232.673C507.766 229.905 504.12 228.226 500.105 227.667L499.829 229.648ZM509.739 234.2C512.727 236.718 515.159 240.289 517.002 244.969L518.863 244.236C516.928 239.324 514.326 235.45 511.027 232.671L509.739 234.2ZM509.435 247.95C508.177 244.756 506.614 242.189 504.719 240.298L503.306 241.714C504.953 243.357 506.385 245.663 507.574 248.683L509.435 247.95ZM504.723 240.302C502.851 238.413 500.748 237.194 498.419 236.705L498.008 238.662C499.897 239.059 501.661 240.054 503.302 241.71L504.723 240.302ZM498.419 236.705C496.095 236.217 493.718 236.469 491.311 237.417L492.044 239.278C494.133 238.455 496.112 238.264 498.008 238.662L498.419 236.705ZM491.311 237.417C488.904 238.365 486.993 239.803 485.627 241.744L487.262 242.895C488.377 241.311 489.955 240.101 492.044 239.278L491.311 237.417ZM485.627 241.744C484.257 243.689 483.544 246.015 483.448 248.677L485.447 248.749C485.531 246.411 486.15 244.475 487.262 242.895L485.627 241.744ZM483.448 248.682C483.367 251.35 483.981 254.288 485.239 257.481L487.1 256.748C485.91 253.727 485.376 251.064 485.447 248.743L483.448 248.682ZM485.239 257.481C486.497 260.674 488.051 263.242 489.93 265.137L491.35 263.729C489.716 262.08 488.29 259.769 487.1 256.748L485.239 257.481ZM489.934 265.141C491.819 267.022 493.927 268.238 496.255 268.726L496.666 266.769C494.775 266.372 493.003 265.378 491.346 263.725L489.934 265.141ZM496.255 268.726C498.579 269.213 500.956 268.962 503.363 268.013L502.63 266.153C500.541 266.975 498.562 267.166 496.666 266.769L496.255 268.726ZM503.363 268.013C505.77 267.065 507.681 265.628 509.047 263.687L507.412 262.536C506.297 264.119 504.719 265.33 502.63 266.153L503.363 268.013ZM509.047 263.687C510.418 261.741 511.124 259.415 511.204 256.757L509.205 256.696C509.134 259.026 508.523 260.957 507.412 262.536L509.047 263.687ZM511.204 256.763C511.301 254.087 510.693 251.144 509.435 247.95L507.574 248.683C508.764 251.702 509.29 254.366 509.206 256.69L511.204 256.763Z" fill="#010000"/>
<path d="M271.5 132.5L267.5 376.5" stroke="white" stroke-width="4"/>
<path d="M268.5 308.5L382.5 265.5" stroke="white" stroke-width="4"/>
<path d="M444.5 242L526.5 211" stroke="white" stroke-width="4"/>
<path d="M39 205L97 228.5" stroke="white" stroke-width="4"/>
<path d="M268.5 296L154.5 251.5" stroke="white" stroke-width="4"/>
<path d="M269 296L377.5 255.5" stroke="white" stroke-width="4"/>
<path d="M439 232.5L509 206.5" stroke="white" stroke-width="4"/>
<path d="M44 172.5L112 198" stroke="white" stroke-width="4"/>
<path d="M170 219.5L269.5 256.5" stroke="white" stroke-width="4"/>
<path d="M70 167.5L118.5 185.5" stroke="white" stroke-width="4"/>
<path d="M177 206L269.5 239.5" stroke="white" stroke-width="4"/>
<path d="M270 239.5L355 210.5" stroke="white" stroke-width="4"/>
<path d="M416.5 189.5L481 167.5" stroke="white" stroke-width="4"/>
<path d="M423 202L501.5 174.5M362 224L269.5 256.5" stroke="white" stroke-width="4"/>
<path d="M78 128.5L136.5 149" stroke="white" stroke-width="4"/>
<path d="M195 169L270.5 195" stroke="white" stroke-width="4"/>
<path d="M337 173L270.5 195" stroke="white" stroke-width="4"/>
<path d="M397.5 153L473 129" stroke="white" stroke-width="4"/>
<path d="M160.563 167.374C163.635 168.615 167.132 167.131 168.374 164.058C169.615 160.986 168.131 157.489 165.058 156.248C161.986 155.006 158.489 156.491 157.247 159.563C156.006 162.636 157.491 166.133 160.563 167.374Z" fill="#DBFF00"/>
<path d="M113.563 221.374C116.635 222.615 120.132 221.131 121.374 218.058C122.615 214.986 121.131 211.489 118.058 210.248C114.986 209.006 111.489 210.491 110.247 213.563C109.006 216.636 110.491 220.133 113.563 221.374Z" fill="#DBFF00"/>
<path d="M131.563 228.374C134.635 229.615 138.132 228.131 139.374 225.058C140.615 221.986 139.131 218.489 136.058 217.248C132.986 216.006 129.489 217.491 128.247 220.563C127.006 223.636 128.491 227.133 131.563 228.374Z" fill="#DBFF00"/>
<path d="M149.563 235.374C152.635 236.615 156.132 235.131 157.374 232.058C158.615 228.986 157.131 225.489 154.058 224.248C150.986 223.006 147.489 224.491 146.247 227.563C145.006 230.636 146.491 234.133 149.563 235.374Z" fill="#DBFF00"/>
</svg>
